<?xml version="1.0" encoding="iso-8859-1"?>
<!-- Generator: Adobe Illustrator 19.0.0, SVG Export Plug-In . SVG Version: 6.00 Build 0)  -->
<svg xmlns="http://www.w3.org/2000/svg" xmlns:xlink="http://www.w3.org/1999/xlink" version="1.1" id="Layer_1" x="0px" y="0px" viewBox="0 0 515 515" style="enable-background:new 0 0 515 515;" xml:space="preserve" width="512" height="512">
<g>
	<path style="fill:#874600;" d="M385.378,324.814l-44.316,11.511c-2.569-18.901-4.118-39.678-4.118-62.329   c0-133.928-129.164-113.324-129.164-113.324s-18.751-0.466-41.277,9.201l-19.176-61.363c21.31-8.557,51.011-15.11,89.947-12.098   c91.959,7.113,171.044,67.573,148.973,213.387C386.247,309.799,385.509,315.692,385.378,324.814z"/>
	<path style="fill:#CC7400;" d="M207.779,160.672c0,0-18.751-0.466-41.277,9.201l-8.608-27.546c0,0,69.019-38.655,142.382,2.102   c83.569,46.428,60.935,186.662,60.935,186.662l0,0l-20.149,5.234c-2.569-18.901-4.118-39.678-4.118-62.329   C336.943,140.068,207.779,160.672,207.779,160.672z"/>
	<path style="fill:#EE8700;" d="M450.618,220.887c0.911-6.78,1.432-13.405,1.619-19.886l-42.29-13.345l39.46-23.358   C435.425,89.941,373.092,40.223,311.146,19.069l-27.29,32.711l-6.036-41.374c-10.844-1.923-21.392-2.906-31.351-2.906   c-22.892,0-46.647,2.275-69.282,5.64l-9.647,41.608l-24.963-35.539C93.92,28.97,57.034,41.287,57.034,41.287l47.819,94.246   c0,0,40.462-46.234,132.421-39.121s171.044,67.573,148.973,213.387c0,0-7.357,58.681,20.231,92.468l51.497,12.448   C457.975,414.714,432.226,357.811,450.618,220.887z"/>
	<path style="fill:#BA6500;" d="M419.406,164.298l-39.46,23.358l42.29,13.345c-0.186,6.481-0.708,13.106-1.619,19.886   c-14.486,107.843-1.591,166.036,4.54,185.894l32.817,7.932c0,0-25.748-56.903-7.357-193.827c0.911-6.78,1.432-13.405,1.619-19.886   l-42.29-13.345l39.46-23.358C435.425,89.941,373.092,40.223,311.146,19.069l-7.487,8.974   C357.528,52.674,407.124,98.978,419.406,164.298z"/>
	<path style="fill:#FFCA10;" d="M224.717,349.797c0,0-20.658-41.315-58.795-33.37c-38.137,7.945-49.798,74.253-54.565,98.089   l-19.487,9.113c-3.022-28.504-4.506-81.927-0.796-128.673c10.868-136.932,116.705-134.284,116.705-134.284   s129.164-20.604,129.164,113.324s54.046,202.609,54.046,202.609c-193.931-37.775-273.411,30.906-273.411,30.906l39.226-134.954   L224.717,349.797z"/>
	<g>
		<path style="fill:#FFA304;" d="M306.943,273.996c0,111.585,37.512,177.867,50.03,196.88c10.926,1.547,22.256,3.438,34.016,5.729    c0,0-54.046-68.681-54.046-202.609c0-121.304-105.959-115.835-125.935-113.726C249.279,164.017,306.943,184.505,306.943,273.996z"/>
	</g>
	<path style="fill:#FFEB99;" d="M207.779,160.672c0,0-99.646-2.484-115.487,122.474c0.187-0.124,105.224-69.464,244.651-9.15   C336.943,140.068,207.779,160.672,207.779,160.672z"/>
	<path style="fill:#E8D68B;" d="M211.008,160.269L211.008,160.269l3.815,0.425c36.444,4.524,87.278,24.795,91.791,101.985   c0.009,0.003,0.018,0.006,0.027,0.009c2.213,0.698,4.437,1.429,6.67,2.19c0.678,0.231,1.358,0.467,2.039,0.703   c1.3,0.453,2.603,0.915,3.91,1.391c1.16,0.421,2.323,0.85,3.489,1.289c0.679,0.256,1.358,0.511,2.038,0.773   c1.701,0.654,3.408,1.327,5.12,2.02c0.431,0.174,0.863,0.353,1.294,0.53c1.908,0.782,3.82,1.579,5.742,2.411   C336.943,152.692,230.985,158.16,211.008,160.269z"/>
	<path d="M464.819,411.646c-0.248-0.558-24.562-57.286-6.768-189.76c0.919-6.843,1.485-13.796,1.683-20.669   c0.096-3.351-2.043-6.358-5.24-7.367l-26.277-8.292l25.01-14.805c2.714-1.606,4.133-4.74,3.551-7.84   c-2.855-15.185-7.817-29.928-14.717-43.959c-0.18-0.516-0.414-1.021-0.716-1.504c-0.03-0.048-0.065-0.091-0.096-0.138   c-9.316-18.462-22.017-35.66-37.759-50.958c-24.571-23.88-55.665-42.686-89.921-54.383c-2.938-1.003-6.193-0.093-8.183,2.293   l-16.534,19.817l-3.612-24.759c-0.466-3.198-2.93-5.737-6.112-6.302C267.823,1.017,256.834,0,246.469,0   c-10.271,0-21.138,0.457-32.519,1.358c-0.117,0.007-0.233,0.015-0.349,0.027c-11.966,0.956-24.499,2.402-37.518,4.337   c-3.047,0.453-5.507,2.724-6.203,5.725l-5.854,25.251l-15.312-21.799c-1.709-2.435-4.698-3.63-7.612-3.043   c-48.554,9.74-86.071,22.193-86.444,22.317c-2.069,0.691-3.734,2.249-4.563,4.267c-0.828,2.018-0.737,4.296,0.25,6.241   l47.818,94.246c1.122,2.213,3.276,3.716,5.737,4.034c2.463,0.317,4.93-0.612,6.577-2.468c0.096-0.108,9.877-10.965,30.194-20.842   c0.645-0.313,1.308-0.628,1.983-0.943l8.08,25.854c0,0,0,0.001,0.001,0.002l6.645,21.265c-2.542,1.264-5.114,2.652-7.697,4.18   c-0.419,0.248-0.828,0.509-1.243,0.762c-0.288,0.175-0.576,0.351-0.861,0.528c-1.143,0.708-2.273,1.434-3.389,2.178   c-0.151,0.101-0.307,0.199-0.457,0.301c-1.273,0.859-2.529,1.741-3.765,2.648c-0.143,0.105-0.28,0.212-0.422,0.317   c-1.059,0.784-2.105,1.586-3.137,2.405c-0.245,0.194-0.488,0.391-0.731,0.587c-1.01,0.814-2.007,1.645-2.99,2.492   c-0.12,0.104-0.242,0.206-0.362,0.31c-9.621,8.365-17.946,18.327-24.857,29.798c-10.3,17.099-17.429,37.569-21.313,61.023   c-0.125,0.747-0.249,1.493-0.365,2.233c-0.111,0.715-0.219,1.432-0.324,2.153c-0.196,1.336-0.38,2.66-0.549,3.966   c-0.534,4.133-0.979,8.346-1.32,12.651c-3.646,45.946-2.351,100.206,0.814,130.058c0.255,2.41,1.66,4.549,3.771,5.74   c2.111,1.192,4.668,1.289,6.864,0.263l19.487-9.113c2.159-1.01,3.71-2.985,4.177-5.323l0.577-2.907   c4.468-22.612,16.338-82.68,48.164-89.31c13.157-2.742,25.514,1.144,36.729,11.544c3.801,3.525,6.861,7.26,9.127,10.398   l-58.886,19.734c-2.332,0.781-4.132,2.656-4.819,5.018l-39.226,134.955c-0.925,3.183,0.357,6.586,3.14,8.385   c1.243,0.803,2.656,1.197,4.064,1.197c1.747,0,3.487-0.607,4.883-1.798c0.193-0.165,19.838-16.633,62.285-28.414   c71.246-19.773,150.698-11.36,204.806-0.822c3.076,0.602,6.201-0.777,7.835-3.452c1.634-2.676,1.431-6.084-0.507-8.547   c-0.424-0.539-34.381-44.687-47.417-130.077l3.034-0.788l10.596-2.752c0.001,0,0.001-0.001,0.002-0.001l14.844-3.856   c0.731,21.18,5.243,51.105,22.726,72.516c1.035,1.269,2.457,2.162,4.047,2.547l51.497,12.447c0.582,0.141,1.169,0.209,1.751,0.209   c2.198,0,4.32-0.974,5.767-2.708C465.559,417.31,465.978,414.256,464.819,411.646z M375.209,466.116   c-92.389-15.552-157.014-6.355-195.686,4.559c-21.964,6.198-38.164,13.556-49.114,19.567l32.501-111.822l64.189-21.512   c2.06-0.69,3.719-2.239,4.548-4.247c0.83-2.007,0.748-4.275-0.224-6.219c-0.235-0.47-5.886-11.641-16.667-21.774   c-14.855-13.965-32.27-19.351-50.366-15.584c-41.139,8.571-54.095,72.14-59.653,100.247l-6.367,2.978   c-2.355-30.298-3-76.712,0.179-116.759c0.212-2.676,0.473-5.301,0.761-7.897c6.226-3.628,22.271-12.224,45.618-19.368   c27.862-8.526,72.153-16.669,124.926-7.043c4.073,0.746,7.98-1.956,8.724-6.032c0.743-4.075-1.958-7.98-6.033-8.724   c-55.957-10.206-102.931-1.5-132.482,7.602c-16.212,4.993-29.055,10.605-37.914,15.015c4.812-24.29,13.453-44.45,25.835-60.345   c0.079-0.101,0.156-0.203,0.235-0.304c0.536-0.683,1.081-1.354,1.631-2.021c0.193-0.234,0.387-0.468,0.582-0.7   c0.498-0.594,1.002-1.183,1.512-1.764c0.263-0.3,0.529-0.596,0.795-0.892c0.474-0.528,0.948-1.055,1.431-1.573   c0.338-0.362,0.684-0.716,1.027-1.073c0.433-0.451,0.862-0.905,1.302-1.347c0.763-0.766,1.537-1.52,2.323-2.261   c0.306-0.289,0.621-0.568,0.93-0.853c0.545-0.501,1.091-1.002,1.647-1.492c0.338-0.298,0.682-0.589,1.023-0.882   c0.542-0.465,1.086-0.926,1.637-1.38c0.351-0.289,0.704-0.574,1.059-0.858c0.56-0.449,1.126-0.892,1.696-1.329   c0.353-0.271,0.705-0.542,1.062-0.808c0.597-0.446,1.203-0.883,1.811-1.318c0.34-0.243,0.678-0.49,1.021-0.729   c0.702-0.489,1.415-0.965,2.131-1.438c0.47-0.31,0.942-0.617,1.418-0.921c0.703-0.449,1.409-0.894,2.125-1.328   c0.87-0.526,1.748-1.042,2.637-1.546c1.533-0.868,3.06-1.681,4.577-2.444c0.022-0.011,0.044-0.023,0.066-0.034   c0.623-0.312,1.242-0.61,1.861-0.906c0.165-0.079,0.33-0.162,0.495-0.239c0.527-0.248,1.05-0.484,1.573-0.72   c0.254-0.115,0.51-0.234,0.763-0.346c0.463-0.204,0.922-0.398,1.381-0.593c0.308-0.131,0.618-0.266,0.925-0.393   c0.417-0.173,0.83-0.336,1.244-0.502c0.345-0.138,0.691-0.278,1.034-0.411c0.38-0.147,0.757-0.287,1.134-0.429   c0.37-0.139,0.741-0.279,1.108-0.412c0.353-0.128,0.701-0.249,1.051-0.372c0.385-0.135,0.771-0.271,1.152-0.4   c0.33-0.112,0.657-0.218,0.984-0.326c0.393-0.129,0.785-0.258,1.173-0.381c0.313-0.099,0.623-0.193,0.933-0.289   c0.394-0.121,0.788-0.241,1.177-0.356c0.298-0.088,0.593-0.172,0.887-0.256c0.392-0.112,0.783-0.223,1.169-0.328   c0.286-0.078,0.569-0.154,0.852-0.229c0.386-0.102,0.77-0.203,1.149-0.299c0.274-0.07,0.545-0.137,0.815-0.203   c0.378-0.093,0.754-0.184,1.125-0.271c0.264-0.062,0.526-0.122,0.787-0.181c0.366-0.083,0.729-0.164,1.087-0.241   c0.254-0.055,0.506-0.109,0.757-0.161c0.355-0.074,0.707-0.146,1.055-0.215c0.242-0.048,0.482-0.095,0.72-0.141   c0.342-0.066,0.68-0.129,1.013-0.189c0.232-0.042,0.464-0.084,0.691-0.124c0.327-0.057,0.649-0.112,0.967-0.165   c0.221-0.037,0.442-0.073,0.659-0.108c0.309-0.049,0.613-0.096,0.912-0.141c0.214-0.032,0.427-0.064,0.636-0.094   c0.29-0.042,0.574-0.081,0.855-0.119c0.202-0.027,0.406-0.055,0.603-0.08c0.27-0.035,0.533-0.067,0.794-0.099   c0.193-0.023,0.387-0.047,0.574-0.068c0.253-0.029,0.498-0.055,0.741-0.081c0.177-0.019,0.357-0.038,0.529-0.056   c0.233-0.023,0.456-0.044,0.678-0.065c0.168-0.016,0.338-0.032,0.5-0.046c0.208-0.018,0.406-0.034,0.603-0.05   c0.156-0.012,0.316-0.026,0.466-0.037c0.183-0.014,0.355-0.025,0.527-0.037c0.147-0.01,0.299-0.02,0.438-0.029   c0.162-0.01,0.312-0.018,0.464-0.027c0.127-0.007,0.258-0.015,0.377-0.021c0.147-0.007,0.28-0.013,0.415-0.019   c0.107-0.005,0.22-0.01,0.319-0.014c0.124-0.005,0.233-0.008,0.345-0.011c0.075-0.002,0.156-0.005,0.226-0.007   c0.061-0.002,0.114-0.003,0.17-0.004c0.044-0.001,0.084-0.002,0.125-0.003c0.055-0.001,0.113-0.003,0.163-0.003   c0.061-0.001,0.119-0.002,0.173-0.002c0.023,0,0.044,0,0.066-0.001c0.036,0,0.074-0.001,0.106-0.001c0.049,0,0.099,0,0.139,0   c0.035,0,0.065,0,0.092,0c0.033,0,0.069,0,0.092,0.001c0.037,0.001,0.07,0.002,0.075,0.002h0h0h0h0   c0.064,0.001,0.13-0.004,0.194-0.004c0.389-0.002,0.782-0.025,1.165-0.085c0.516-0.082,50.425-7.529,85.446,19.279   c0.108,0.083,0.215,0.17,0.323,0.253c0.449,0.348,0.898,0.697,1.342,1.056c0.229,0.186,0.455,0.379,0.683,0.567   c0.323,0.267,0.648,0.532,0.969,0.806c0.037,0.032,0.073,0.065,0.109,0.097c1.065,0.913,2.098,1.857,3.109,2.822   c0.126,0.121,0.255,0.238,0.381,0.36c0.977,0.946,1.926,1.92,2.852,2.915c0.004,0.005,0.009,0.01,0.013,0.014   c0.154,0.166,0.309,0.33,0.461,0.497c0.903,0.987,1.782,1.998,2.636,3.033c0.097,0.117,0.192,0.236,0.288,0.354   c0.052,0.063,0.103,0.127,0.154,0.19c0.86,1.061,1.7,2.143,2.509,3.254c0.1,0.137,0.196,0.277,0.295,0.415   c0.834,1.158,1.645,2.338,2.424,3.549c0.017,0.026,0.034,0.051,0.051,0.076c0.783,1.22,1.531,2.473,2.258,3.746   c0.094,0.163,0.189,0.325,0.282,0.489c0.688,1.223,1.347,2.473,1.983,3.743c0.021,0.041,0.041,0.083,0.062,0.124   c0.088,0.177,0.177,0.353,0.264,0.531c0.622,1.266,1.219,2.554,1.791,3.866c0.079,0.18,0.155,0.363,0.233,0.544   c0.016,0.038,0.032,0.075,0.048,0.113c0.576,1.35,1.131,2.719,1.655,4.118c0.056,0.15,0.109,0.303,0.164,0.454   c0.529,1.432,1.033,2.886,1.508,4.368c0.021,0.064,0.043,0.127,0.064,0.191c0.475,1.493,0.916,3.018,1.336,4.563   c0.058,0.212,0.118,0.423,0.175,0.636c0.396,1.489,0.763,3.005,1.108,4.541c0.024,0.107,0.048,0.215,0.072,0.323   c0.036,0.162,0.072,0.323,0.108,0.486c0.334,1.535,0.645,3.091,0.928,4.672c0.046,0.256,0.089,0.515,0.134,0.773   c0.283,1.633,0.546,3.284,0.776,4.965c0.021,0.152,0.038,0.307,0.059,0.46c0.227,1.693,0.428,3.41,0.6,5.153   c0.012,0.12,0.026,0.238,0.038,0.359c0.17,1.75,0.306,3.53,0.422,5.329c0.004,0.056,0.007,0.113,0.011,0.169   c0.007,0.108,0.014,0.215,0.021,0.323c-9.52-3.721-19.131-6.966-28.693-9.68c-3.983-1.13-8.132,1.182-9.263,5.167   c-1.131,3.984,1.182,8.132,5.167,9.263c11.06,3.139,22.195,7.027,33.168,11.574c0.008,0.807,0.015,1.615,0.027,2.418   c0.012,0.795,0.032,1.587,0.047,2.381c0.033,1.66,0.072,3.312,0.121,4.95c0.029,0.965,0.061,1.929,0.096,2.892   c0.052,1.442,0.112,2.873,0.176,4.299c0.048,1.07,0.093,2.14,0.148,3.208c0.059,1.131,0.128,2.246,0.194,3.367   c0.171,2.919,0.367,5.827,0.59,8.724c0.014,0.179,0.026,0.36,0.04,0.538c0.676,8.643,1.573,17.186,2.713,25.577   c0.037,0.27,0.088,0.536,0.153,0.798c5.368,38.766,14.826,69.112,23.216,90.167C363.541,444.718,370.083,457.326,375.209,466.116z    M410.773,395.589c-22.612-30.107-17.543-80.717-17.112-84.618c0.008-0.067,0.014-0.125,0.019-0.164   c7.444-49.285,3.925-91.802-10.459-126.365c-1.592-3.824-5.984-5.636-9.806-4.042c-3.824,1.591-5.634,5.981-4.042,9.806   c0,0.001,0,0.001,0.001,0.001c0,0.001,0,0.002,0,0.002c13.327,32.025,16.509,71.884,9.458,118.468   c-0.01,0.063-0.018,0.126-0.026,0.19c-0.074,0.59-0.518,4.305-0.783,10.108l-8.03,2.086c1.364-13.811,2.811-38.839-0.461-66.763   c-6.557-55.962-29.245-96.221-65.613-116.426c-15.471-8.594-31.943-14.439-48.961-17.374c-4.078-0.7-7.961,2.035-8.665,6.116   c-0.704,4.082,2.035,7.961,6.117,8.665c15.352,2.647,30.232,7.932,44.225,15.706c32.354,17.975,51.855,53.209,57.96,104.724   c3.65,30.798,1.146,58.569-0.147,69.389l-6.991,1.816c-0.07-0.6-0.144-1.193-0.212-1.797c-0.012-0.107-0.023-0.214-0.035-0.321   c-0.474-4.254-0.887-8.607-1.247-13.04c-0.098-1.214-0.197-2.427-0.286-3.645c-0.056-0.772-0.107-1.553-0.16-2.33   c-0.09-1.338-0.178-2.676-0.256-4.019c-0.043-0.726-0.083-1.455-0.123-2.186c-0.076-1.407-0.146-2.817-0.209-4.229   c-0.031-0.696-0.063-1.391-0.091-2.091c-0.059-1.463-0.109-2.93-0.155-4.398c-0.021-0.665-0.044-1.325-0.062-1.993   c-0.042-1.558-0.072-3.119-0.099-4.682c-0.01-0.585-0.025-1.164-0.033-1.752c-0.029-2.142-0.045-4.287-0.045-6.436   c0-42.339-12.46-74.437-37.032-95.399c-0.604-0.515-1.211-1.02-1.822-1.516h0c-8.428-6.837-17.551-11.87-26.733-15.556   c-0.14-0.056-0.28-0.116-0.419-0.171c-0.434-0.172-0.867-0.336-1.301-0.503c-0.232-0.089-0.465-0.182-0.697-0.269   c-1.106-0.416-2.212-0.808-3.316-1.186c-0.227-0.078-0.454-0.159-0.681-0.235c-1.166-0.392-2.33-0.76-3.492-1.112   c-0.163-0.05-0.327-0.102-0.491-0.151c-0.255-0.076-0.509-0.147-0.763-0.221c-0.408-0.119-0.816-0.24-1.222-0.354   c-0.203-0.057-0.404-0.11-0.607-0.165c-0.457-0.126-0.915-0.253-1.371-0.374c-0.096-0.025-0.191-0.048-0.287-0.073   c-0.561-0.147-1.122-0.292-1.68-0.43c-0.493-0.122-0.983-0.238-1.474-0.354c-0.16-0.038-0.322-0.078-0.482-0.115   c-1.294-0.301-2.581-0.579-3.858-0.837c-0.007-0.001-0.014-0.003-0.021-0.004c-0.642-0.13-1.282-0.254-1.919-0.374l-0.001,0   c-23.581-4.424-43.526-1.996-47.525-1.426c-0.113,0-0.239,0.001-0.376,0.003c-0.113,0.001-0.238,0.003-0.367,0.005   c-0.012,0-0.024,0-0.037,0.001c-0.886,0.015-2.134,0.056-3.708,0.16c-0.008,0-0.016,0.001-0.024,0.001   c-0.338,0.022-0.693,0.048-1.06,0.076c-0.019,0.001-0.036,0.003-0.055,0.004c-0.363,0.028-0.742,0.06-1.133,0.095   c-0.025,0.002-0.049,0.004-0.074,0.006c-0.393,0.035-0.8,0.075-1.219,0.118c-0.025,0.003-0.048,0.005-0.073,0.007   c-0.417,0.043-0.847,0.09-1.288,0.141c-0.033,0.004-0.065,0.007-0.098,0.011c-0.438,0.051-0.889,0.106-1.35,0.165   c-0.04,0.005-0.079,0.01-0.119,0.015c-0.46,0.06-0.933,0.124-1.415,0.193c-0.044,0.006-0.088,0.012-0.132,0.019   c-0.482,0.069-0.975,0.143-1.477,0.222c-0.05,0.008-0.099,0.015-0.149,0.023c-0.505,0.08-1.02,0.165-1.545,0.254   c-0.049,0.008-0.098,0.017-0.148,0.025c-0.528,0.091-1.066,0.188-1.613,0.29c-0.051,0.009-0.101,0.019-0.152,0.028   c-0.55,0.103-1.108,0.212-1.676,0.327c-0.051,0.01-0.103,0.021-0.154,0.031c-0.572,0.117-1.152,0.239-1.741,0.368   c-0.049,0.011-0.099,0.022-0.148,0.033c-0.594,0.131-1.196,0.268-1.806,0.412c-0.048,0.011-0.095,0.023-0.143,0.034   c-0.617,0.146-1.241,0.299-1.874,0.459c-0.041,0.01-0.081,0.021-0.122,0.031c-0.641,0.163-1.289,0.333-1.946,0.512   c-0.035,0.009-0.07,0.019-0.105,0.029c-0.665,0.181-1.336,0.37-2.016,0.567c-0.026,0.007-0.051,0.015-0.077,0.023   c-0.69,0.201-1.387,0.41-2.092,0.629c-0.012,0.004-0.025,0.008-0.037,0.012c-1.451,0.451-2.93,0.939-4.435,1.469l-4.285-13.711   c9.209-4.097,29.383-11.672,54.776-12.846c4.138-0.191,7.337-3.701,7.146-7.839c-0.192-4.138-3.702-7.339-7.838-7.146   c-26.54,1.227-47.627,8.663-58.592,13.402l-5.865-18.768c16.527-5.759,38.76-10.419,66.796-9.824   c0.408,0.009,0.814,0.014,1.222,0.026c0.863,0.023,1.735,0.055,2.609,0.088c0.886,0.034,1.774,0.073,2.665,0.117   c0.646,0.032,1.291,0.062,1.943,0.1c1.611,0.093,3.227,0.196,4.853,0.322c3.236,0.25,6.431,0.566,9.585,0.946   c22.08,2.663,42.139,8.508,59.744,17.421c17.584,8.901,32.356,20.728,44.055,35.249c2.7,3.351,5.236,6.846,7.605,10.481   c2.262,3.472,6.907,4.452,10.378,2.188c3.47-2.262,4.45-6.908,2.188-10.378c-5.286-8.111-11.308-15.589-18.037-22.41   c-11.216-11.369-24.398-20.912-39.414-28.513c-21.881-11.077-47.097-17.785-74.947-19.939c-2.207-0.171-4.401-0.311-6.583-0.425   c-0.837-0.044-1.651-0.065-2.48-0.1c-1.32-0.056-2.644-0.118-3.955-0.154c-1.106-0.03-2.185-0.035-3.275-0.05   c-1.001-0.014-2.008-0.038-3.003-0.039c-1.396-0.002-2.762,0.022-4.131,0.044c-0.664,0.011-1.334,0.01-1.995,0.026   c-1.925,0.047-3.819,0.12-5.691,0.211c-0.092,0.005-0.187,0.006-0.279,0.011c-53.655,2.694-85.71,23.42-99.428,34.792L67.724,45.78   c12.85-3.927,39.43-11.584,71.54-18.241l22.139,31.52c1.7,2.422,4.666,3.622,7.57,3.051c2.904-0.564,5.205-2.785,5.873-5.667   l8.488-36.612c7.351-1.03,14.509-1.878,21.499-2.58l-6.675,30.107c-0.896,4.044,1.655,8.049,5.699,8.945   c0.547,0.121,1.093,0.18,1.63,0.18c3.44,0,6.54-2.382,7.315-5.879l7.687-34.671C229.524,15.324,238.213,15,246.469,15   c7.869,0,16.164,0.646,24.722,1.923l5.243,35.94c0.427,2.928,2.536,5.331,5.383,6.135c2.847,0.805,5.902-0.142,7.797-2.413   l23.949-28.706c30.25,11.06,57.641,28.016,79.472,49.232c13.195,12.824,23.896,26.738,32.098,41.616l-26.598,16.6   c-3.514,2.192-4.585,6.819-2.392,10.333c1.422,2.279,3.867,3.53,6.37,3.53c1.355,0,2.729-0.368,3.963-1.139l25.326-15.806   c3.951,9.119,7.016,18.567,9.183,28.322l-34.86,20.635c-2.546,1.507-3.968,4.371-3.631,7.311c0.338,2.939,2.373,5.405,5.194,6.296   l36.8,11.613c-0.269,4.498-0.706,9.008-1.305,13.468c-3.933,29.282-5.876,54.953-6.493,77.258l-20.162-3.5   c-4.086-0.709-7.964,2.026-8.672,6.107c-0.709,4.081,2.026,7.963,6.107,8.672l22.504,3.906   c-0.061,46.423,5.769,76.202,10.107,91.909L410.773,395.589z"/>
</g>















</svg>
