<?xml version="1.0" encoding="iso-8859-1"?>
<!-- Generator: Adobe Illustrator 19.0.0, SVG Export Plug-In . SVG Version: 6.00 Build 0)  -->
<svg xmlns="http://www.w3.org/2000/svg" xmlns:xlink="http://www.w3.org/1999/xlink" version="1.1" id="Layer_1" x="0px" y="0px" viewBox="0 0 513.862 513.862" style="enable-background:new 0 0 513.862 513.862;" xml:space="preserve" width="512" height="512">
<g>
	<path style="fill:#E0E0E2;" d="M259.572,16.299L259.572,16.299c12.004,31.271-20.229,37.814-20.229,37.814   c-2.467,48.523-57.57,43.589-57.57,43.589c-14.787,23.824-48.133,12.534-48.207,12.509c-3.54,11.898-5.45,24.498-5.45,37.546   v108.041c0,22.369,14.438,41.353,34.498,48.177v59.133h0.344c0.511,5.946,1.779,14.278,4.931,20.014l-0.002-0.009   c6.454,2.397,13.199,6.225,20.095,11.957c0,0,81.684-13.97,120.14,27.17l1.34-1.254l18.526-10.348   c17.37-9.702,28.542-31.15,28.542-54.796v-51.867c-0.001,0-0.003,0.001-0.004,0.001c20.063-6.823,34.503-25.808,34.503-48.178   V147.756C391.029,75.154,332.174,16.299,259.572,16.299z"/>
	<path style="fill:#C6C5CA;" d="M340.138,306.687c-12.388,0-22.43,10.042-22.43,22.43v0c0,20.574-16.679,37.253-37.254,37.253   h-41.765c-20.574,0-37.253-16.679-37.253-37.253v0c0-12.388-10.042-22.43-22.43-22.43c-5.738,0-11.247-0.963-16.392-2.714v24   c5.145,1.75,10.655,2.714,16.392,2.714c12.388,0,22.43,10.042,22.43,22.43v0c0,20.574,16.679,37.253,37.253,37.253h41.765   c20.575,0,37.254-16.679,37.254-37.253v0c0-12.388,10.042-22.43,22.43-22.43c5.738,0,11.247-0.963,16.392-2.714v-24   c-0.002,0-0.003,0.001-0.004,0.001h0C351.382,305.725,345.874,306.687,340.138,306.687z"/>
	<g>
		<path style="fill:#C6C5CA;" d="M259.572,16.299L259.572,16.299c0.46,1.2,0.848,2.359,1.183,3.487    c58.053,13.64,101.273,65.755,101.273,127.97v108.041c0,22.37-14.44,41.355-34.503,48.178c0.001-0.001,0.003-0.001,0.004-0.001    v51.867c0,23.646-11.171,45.094-28.542,54.796l-2.647,1.479c4.235,2.933,8.196,6.288,11.781,10.123l1.34-1.254l18.526-10.348    c17.37-9.702,28.542-31.15,28.542-54.796v-51.867c-0.001,0-0.003,0.001-0.004,0.001c20.063-6.823,34.503-25.808,34.503-48.178    V147.756C391.029,75.154,332.174,16.299,259.572,16.299z"/>
		<path style="fill:#C6C5CA;" d="M135.896,110.885c-1.471-0.384-2.319-0.67-2.331-0.674c-0.144,0.485-0.269,0.979-0.408,1.467    C134.074,111.454,134.987,111.182,135.896,110.885z"/>
	</g>
	<g>
		<path style="fill:#E0E0E2;" d="M429.261,279.703l-34.049,34.048c10.495,9.293,20.137,19.372,28.964,29.888l34.511-34.511    c0.54,0.656,1.103,1.299,1.717,1.913c10.305,10.305,27.014,10.306,37.32,0c10.306-10.306,10.306-27.014,0-37.32    c-7.179-7.179-17.463-9.351-26.527-6.528c2.823-9.064,0.651-19.348-6.528-26.527c-10.306-10.306-27.014-10.306-37.32,0    c-10.306,10.306-10.305,27.014,0,37.32C427.962,278.6,428.605,279.163,429.261,279.703z"/>
	</g>
	<path style="fill:#C6C5CA;" d="M497.723,273.722c-2.861-2.861-6.219-4.913-9.793-6.185c3.298,9.294,1.231,20.067-6.207,27.504   c-10.306,10.306-27.014,10.305-37.32,0c-0.613-0.613-1.177-1.257-1.717-1.913l-33.726,33.727   c5.316,5.428,10.392,11.038,15.216,16.784l34.511-34.511c0.54,0.656,1.103,1.299,1.717,1.913c10.305,10.305,27.014,10.306,37.32,0   C508.029,300.736,508.029,284.027,497.723,273.722z"/>
	<g>
		<path style="fill:#E0E0E2;" d="M53.74,265.944c0.613-0.613,1.176-1.257,1.717-1.913l58.11,58.11    c10.025-9.556,20.846-18.451,32.508-26.344l-61.192-61.192c0.656-0.54,1.299-1.103,1.912-1.716    c10.305-10.306,10.306-27.014,0-37.32c-10.305-10.305-27.014-10.305-37.32,0c-7.179,7.179-9.351,17.463-6.528,26.527    c-9.064-2.822-19.348-0.65-26.527,6.528c-10.305,10.306-10.305,27.014,0,37.32C26.726,276.25,43.435,276.25,53.74,265.944z"/>
	</g>
	<path style="fill:#C6C5CA;" d="M71.996,251.162c-0.54,0.656-1.103,1.299-1.717,1.913c-10.305,10.305-27.014,10.306-37.32,0   c-8.485-8.485-9.977-21.308-4.49-31.326c-4.413,1.137-8.592,3.42-12.049,6.876c-10.305,10.306-10.305,27.014,0,37.32   c10.306,10.306,27.014,10.305,37.32,0c0.613-0.613,1.176-1.257,1.717-1.913l58.11,58.11c5.008-4.773,10.214-9.382,15.625-13.783   L71.996,251.162z"/>
	<path style="fill:#904F15;" d="M133.562,110.209c0,0,33.407,11.343,48.211-12.508c0,0,55.103,4.935,57.57-43.589   c0,0,32.233-6.543,20.229-37.814c0,0-42.999-22.076-89.878,9.176C122.815,56.728,133.562,110.209,133.562,110.209z"/>
	<path style="fill:#7A4113;" d="M259.572,16.299c0,0-10.965-5.625-27.854-7.176c4.924,28.671-26.265,35.006-26.265,35.006   c-2.886,56.763-67.346,50.99-67.346,50.99c-1.641,2.644-3.478,4.916-5.458,6.867c0.292,5.127,0.912,8.222,0.912,8.222   s33.407,11.343,48.211-12.508c0,0,55.103,4.935,57.57-43.589C239.343,54.113,271.576,47.57,259.572,16.299z"/>
	<path style="fill:#904F15;" d="M371.926,295.526c-4.556,3.648-9.754,6.529-15.395,8.448v51.867   c0,23.646-11.171,45.094-28.542,54.796l-18.526,10.348l-1.34,1.254c-38.456-41.14-120.14-27.17-120.14-27.17   c-6.89-5.727-13.628-9.552-20.076-11.95l-0.017,0.001l0-0.001l0,0c-3.758-6.84-4.839-17.372-5.15-23.143   c-0.019-0.346-0.036-0.693-0.051-1.04c-0.082-1.913-0.075-3.096-0.075-3.096v-51.867c-5.784-1.968-11.096-4.951-15.734-8.73   C46.134,362.801,7.5,505.21,7.5,505.21h498.862C506.362,505.21,470.9,363.195,371.926,295.526z"/>
	<g>
		<path style="fill:#7A4113;" d="M134.614,355.841c0,0-0.007,1.183,0.075,3.096c0.014,0.347,0.031,0.694,0.051,1.04    c0.311,5.772,1.392,16.304,5.15,23.143l0,0l0,0.001l0.017-0.001c6.448,2.398,13.186,6.223,20.076,11.95    c0,0,10.277-1.755,25.249-2.188c-5.933-4.529-11.738-7.684-17.325-9.762l-0.017,0.001l0-0.001l0,0    c-3.758-6.84-4.839-17.372-5.15-23.143c-0.019-0.346-0.036-0.693-0.051-1.04c-0.082-1.913-0.075-3.096-0.075-3.096v-51.867    c-5.784-1.968-11.096-4.951-15.734-8.73c-4.199,2.816-8.281,5.773-12.266,8.833V355.841z"/>
		<path style="fill:#7A4113;" d="M371.926,295.526c-4.556,3.648-9.754,6.529-15.395,8.448v0.838    c89.393,70.531,121.832,200.399,121.832,200.399h28C506.362,505.21,470.9,363.195,371.926,295.526z"/>
	</g>
	<path style="fill:#3E3D42;" d="M266.497,228.141l21.622,42.489c2.631,5.17-1.125,11.295-6.925,11.295h-21.621h-21.622   c-5.8,0-9.556-6.125-6.925-11.295l21.622-42.489C255.528,222.479,263.616,222.479,266.497,228.141z"/>
	<path style="fill:#2D2D30;" d="M288.119,270.629l-21.622-42.489c-2.881-5.662-10.969-5.662-13.851,0l-5.075,9.972l16.547,32.516   c2.631,5.17-1.125,11.295-6.925,11.295h2.379h21.621C286.994,281.924,290.75,275.799,288.119,270.629z"/>
	<path style="fill:#3E3D42;" d="M235.779,187.779c0,16.814-16.693,30.444-37.285,30.444c-20.592,0-37.285,2.443-37.285-14.371   c0-16.814,4.169-46.517,37.285-46.517C219.086,157.334,235.779,170.965,235.779,187.779z"/>
	<path style="fill:#2D2D30;" d="M198.494,157.334c-5.866,0-10.808,0.947-14.996,2.574c13.118,4.715,22.281,15.416,22.281,27.87   c0,15.088-13.445,27.605-31.084,30.017c6.457,0.897,14.751,0.427,23.798,0.427c20.592,0,37.285-13.63,37.285-30.444   S219.086,157.334,198.494,157.334z"/>
	<path style="fill:#3E3D42;" d="M283.365,187.779c0,16.814,16.693,30.444,37.285,30.444c20.592,0,37.285,2.443,37.285-14.371   c0-16.814-4.168-46.517-37.285-46.517C300.059,157.334,283.365,170.965,283.365,187.779z"/>
	<path style="fill:#2D2D30;" d="M320.651,157.334c-5.34,0-10.412,0.923-15.005,2.574c19.451,7.559,22.29,30.108,22.29,43.943   c0,9.426-5.248,12.799-13.487,13.944c2.018,0.276,4.088,0.427,6.202,0.427c20.592,0,37.285,2.443,37.285-14.371   C357.936,187.038,353.767,157.334,320.651,157.334z"/>
	<g>
		<path d="M237.95,289.424h43.244c5.353,0,10.22-2.725,13.018-7.288c2.799-4.564,3.02-10.137,0.592-14.908l-21.621-42.489    c-2.619-5.147-7.834-8.345-13.609-8.345c0,0,0,0-0.001,0c-5.775,0-10.99,3.197-13.61,8.345l-21.621,42.489    c-2.428,4.771-2.207,10.344,0.591,14.908C227.731,286.7,232.597,289.424,237.95,289.424z M237.71,274.031l21.621-42.488    c0.052-0.102,0.075-0.148,0.241-0.148c0.166,0,0.19,0.046,0.241,0.147l21.621,42.489c0.04,0.079,0.069,0.135-0.01,0.265    c-0.079,0.129-0.143,0.129-0.23,0.129H237.95c-0.088,0-0.151,0-0.23-0.129C237.641,274.166,237.67,274.109,237.71,274.031z"/>
		<path d="M243.279,187.779c0-20.922-20.09-37.944-44.785-37.944c-28.461,0-44.785,19.689-44.785,54.017    c0,6.384,1.9,11.494,5.646,15.189c6.062,5.976,15.247,6.806,26.021,6.806c2.024,0,4.105-0.029,6.231-0.06    c2.231-0.031,4.533-0.064,6.887-0.064C223.189,225.723,243.279,208.701,243.279,187.779z M198.494,210.723    c-2.426,0-4.799,0.033-7.098,0.065c-8.803,0.125-18.777,0.265-21.509-2.429c-0.781-0.77-1.178-2.287-1.178-4.507    c0-10.607,1.837-19.59,5.313-25.98c4.771-8.772,12.776-13.037,24.473-13.037c16.423,0,29.785,10.293,29.785,22.944    C228.279,200.43,214.917,210.723,198.494,210.723z"/>
		<path d="M327.538,225.786c2.127,0.03,4.207,0.06,6.232,0.06c10.773,0,19.96-0.83,26.021-6.806    c3.747-3.694,5.646-8.804,5.646-15.189c0-34.329-16.323-54.017-44.785-54.017c-24.694,0-44.785,17.022-44.785,37.944    c0,20.922,20.091,37.944,44.785,37.944C323.004,225.723,325.307,225.755,327.538,225.786z M290.866,187.779    c0-12.651,13.361-22.944,29.785-22.944c7.367,0,29.785,0,29.785,39.017c0,2.22-0.396,3.737-1.178,4.507    c-2.732,2.694-12.716,2.554-21.509,2.429c-2.3-0.032-4.673-0.065-7.099-0.065C304.227,210.723,290.866,200.43,290.866,187.779z"/>
		<path d="M128.115,180.34c4.142,0,7.5-3.358,7.5-7.5v-25.084c0-9.641,1.109-19.203,3.304-28.518    c2.401,0.443,5.245,0.837,8.363,1.033c0.084,0.005,0.17,0.009,0.255,0.015c0.51,0.03,1.026,0.055,1.551,0.074    c0.203,0.007,0.408,0.012,0.613,0.018c0.421,0.011,0.845,0.018,1.275,0.021c0.13,0.001,0.257,0.006,0.388,0.006    c0.285,0,0.572-0.002,0.86-0.006c0.013,0,0.026-0.001,0.039-0.001c0.023,0,0.045,0,0.068,0c0.479-0.008,0.947-0.035,1.419-0.054    c0.388-0.015,0.782-0.021,1.166-0.044c0.488-0.029,0.964-0.078,1.445-0.119c0.377-0.032,0.759-0.055,1.131-0.095    c0.463-0.049,0.914-0.118,1.37-0.179c0.379-0.051,0.764-0.092,1.138-0.151c0.42-0.066,0.828-0.15,1.242-0.225    c0.399-0.073,0.803-0.137,1.196-0.219c0.372-0.078,0.734-0.173,1.101-0.259c0.422-0.099,0.848-0.189,1.263-0.299    c0.326-0.086,0.64-0.188,0.962-0.281c0.444-0.128,0.893-0.25,1.328-0.39c0.277-0.089,0.543-0.193,0.816-0.288    c0.468-0.162,0.939-0.318,1.396-0.495c0.232-0.09,0.455-0.193,0.684-0.286c0.487-0.198,0.977-0.393,1.452-0.609    c0.173-0.078,0.339-0.168,0.51-0.249c0.521-0.245,1.041-0.49,1.546-0.756c0.125-0.066,0.244-0.14,0.368-0.207    c0.543-0.293,1.083-0.59,1.608-0.907c0.083-0.05,0.16-0.106,0.243-0.156c0.559-0.344,1.113-0.695,1.652-1.067    c0.046-0.032,0.089-0.067,0.135-0.099c0.569-0.396,1.13-0.804,1.676-1.232c0.029-0.023,0.056-0.048,0.085-0.071    c0.559-0.44,1.107-0.894,1.641-1.367c0.018-0.016,0.035-0.034,0.053-0.05c1.662-1.478,3.202-3.111,4.608-4.9    c9.023,0.044,29.809-1.403,44.796-14.425c8.954-7.78,14.321-18.234,15.997-31.132c5.448-2.055,13.665-6.298,18.786-14.318    c0.341-0.535,0.669-1.086,0.981-1.655c0.358-0.653,0.681-1.319,0.987-1.99c0.09-0.197,0.173-0.396,0.258-0.594    c0.22-0.513,0.424-1.032,0.614-1.556c0.069-0.189,0.141-0.377,0.206-0.568c0.234-0.691,0.447-1.389,0.628-2.098    c0.029-0.113,0.05-0.228,0.077-0.342c0.148-0.608,0.276-1.223,0.386-1.844c0.039-0.221,0.075-0.444,0.109-0.667    c0.089-0.576,0.161-1.157,0.217-1.744c0.017-0.176,0.04-0.351,0.054-0.529c0.059-0.75,0.093-1.509,0.1-2.276    c0.001-0.17-0.006-0.344-0.007-0.515c-0.004-0.618-0.024-1.242-0.062-1.872c-0.014-0.231-0.029-0.463-0.047-0.696    c-0.054-0.68-0.126-1.366-0.218-2.059c-0.013-0.097-0.017-0.19-0.031-0.287c23.372,1.815,45.45,10.11,64.363,24.263    c3.315,2.482,8.017,1.805,10.498-1.511c2.482-3.316,1.805-8.017-1.512-10.499c-23.691-17.728-51.813-27.236-81.425-27.599    c-8.878-3.978-50.531-19.771-95.789,10.401c-20.896,13.931-34.334,34.323-38.862,58.972c-2.729,14.86-1.448,27.07-0.778,31.601    c-3.49,12.315-5.279,25.069-5.279,37.947v25.084C120.615,176.982,123.973,180.34,128.115,180.34z M173.854,31.716    c36.647-24.431,70.193-13.781,79.68-9.908c0.016,0.054,0.03,0.107,0.046,0.161c0.187,0.635,0.353,1.259,0.494,1.872    c0.013,0.058,0.03,0.118,0.043,0.176c0.14,0.624,0.251,1.233,0.344,1.833c0.017,0.11,0.035,0.221,0.051,0.33    c0.082,0.582,0.142,1.153,0.179,1.712c0.007,0.103,0.011,0.205,0.016,0.307c0.029,0.571,0.041,1.133,0.023,1.68    c-0.001,0.042-0.006,0.082-0.008,0.124c-0.022,0.531-0.068,1.05-0.136,1.558c-0.009,0.071-0.016,0.144-0.026,0.214    c-0.074,0.508-0.175,1.003-0.295,1.487c-0.023,0.093-0.047,0.186-0.072,0.279c-0.128,0.477-0.277,0.942-0.451,1.395    c-0.029,0.074-0.061,0.146-0.09,0.22c-0.19,0.47-0.398,0.931-0.639,1.375c-4.236,7.813-15.089,10.215-15.161,10.231    c-3.356,0.681-5.825,3.549-5.998,6.969c-0.572,11.25-4.259,19.694-11.273,25.817c-12.544,10.949-32.077,10.938-36.987,10.745    c-0.715-0.028-1.124-0.06-1.152-0.062c-1.059-0.093-2.104,0.039-3.075,0.368c-1.618,0.548-3.032,1.642-3.967,3.147    c-0.33,0.532-0.676,1.037-1.032,1.524c-0.113,0.155-0.232,0.302-0.347,0.453c-0.249,0.325-0.501,0.644-0.76,0.949    c-0.145,0.17-0.293,0.336-0.442,0.502c-0.241,0.267-0.485,0.526-0.734,0.778c-0.168,0.17-0.336,0.338-0.508,0.502    c-0.232,0.22-0.469,0.43-0.707,0.638c-0.199,0.174-0.396,0.35-0.602,0.517c-0.188,0.153-0.382,0.295-0.574,0.441    c-0.268,0.203-0.532,0.41-0.809,0.602c-0.024,0.016-0.048,0.031-0.072,0.047c-4.328,2.97-9.821,4.545-16.43,4.695    c-4.717,0.109-9.051-0.545-12.084-1.181C139.054,91.441,138.957,54.981,173.854,31.716z"/>
		<path d="M513.638,503.393c-0.369-1.48-9.298-36.761-30.626-80.912c-15.608-32.31-32.399-57.975-48.775-78.296l24.605-24.606    c13.261,9.872,32.156,8.793,44.185-3.235c13.213-13.213,13.213-34.713,0-47.926c-6.27-6.27-14.566-9.721-23.133-9.923    c-0.201-8.565-3.653-16.863-9.922-23.132c-6.401-6.401-14.911-9.926-23.964-9.926c-9.052,0-17.563,3.525-23.962,9.925    c-6.401,6.401-9.927,14.912-9.927,23.964c0,7.386,2.347,14.411,6.688,20.224l-24.001,24.001c-3.855-3.244-7.585-6.19-11.164-8.86    c9.249-10.335,14.887-23.966,14.887-38.894V147.756c0-32.775-11.629-64.597-32.744-89.603c-2.672-3.165-7.404-3.564-10.569-0.892    c-3.165,2.672-3.563,7.404-0.892,10.569c18.833,22.303,29.205,50.687,29.205,79.925v108.041c0,14.202-6.858,26.832-17.437,34.752    c-0.004,0.003-0.009,0.007-0.013,0.01c-1.667,1.248-3.427,2.378-5.267,3.379c-0.022,0.012-0.045,0.023-0.067,0.035    c-0.55,0.298-1.108,0.583-1.671,0.857c-0.203,0.099-0.41,0.191-0.615,0.287c-0.379,0.177-0.759,0.351-1.143,0.518    c-0.297,0.128-0.597,0.25-0.898,0.372c-0.291,0.118-0.583,0.234-0.877,0.346c-0.364,0.138-0.729,0.272-1.097,0.4    c-0.234,0.082-0.469,0.161-0.705,0.239c-0.39,0.129-0.781,0.255-1.174,0.373c-0.196,0.059-0.395,0.113-0.592,0.169    c-1.328,0.377-2.671,0.688-4.024,0.936c-0.297,0.054-0.594,0.112-0.893,0.16c-0.318,0.052-0.638,0.094-0.958,0.139    c-0.358,0.049-0.718,0.097-1.079,0.137c-0.289,0.033-0.577,0.062-0.867,0.089c-0.425,0.039-0.853,0.071-1.281,0.098    c-0.236,0.015-0.471,0.032-0.707,0.043c-0.672,0.031-1.346,0.051-2.025,0.051c-16.503,0-29.93,13.427-29.93,29.93    c0,12.77-8.088,23.684-19.409,27.896v-15.648c0-4.142-3.357-7.5-7.5-7.5c-4.143,0-7.5,3.358-7.5,7.5v17.505h-8.728v-17.505    c0-4.142-3.357-7.5-7.5-7.5c-4.142,0-7.5,3.358-7.5,7.5v17.505h-8.727v-17.505c0-4.142-3.358-7.5-7.5-7.5    c-4.142,0-7.5,3.358-7.5,7.5v15.648c-11.321-4.212-19.409-15.126-19.409-27.896c0-16.503-13.427-29.93-29.93-29.93    c-0.679,0-1.354-0.02-2.025-0.051c-0.236-0.011-0.471-0.029-0.706-0.043c-0.43-0.027-0.858-0.059-1.284-0.098    c-0.288-0.027-0.576-0.056-0.863-0.089c-0.363-0.041-0.725-0.089-1.085-0.138c-0.317-0.044-0.634-0.086-0.95-0.137    c-0.306-0.049-0.609-0.108-0.913-0.164c-0.881-0.162-1.758-0.344-2.628-0.561c-0.035-0.009-0.071-0.016-0.106-0.024    c-0.418-0.105-0.834-0.224-1.25-0.341c-0.208-0.059-0.417-0.116-0.624-0.178c-0.385-0.115-0.768-0.239-1.15-0.365    c-0.239-0.079-0.478-0.16-0.716-0.243c-0.379-0.132-0.756-0.27-1.131-0.413c-0.28-0.107-0.559-0.218-0.836-0.33    c-0.324-0.131-0.648-0.265-0.969-0.404c-0.331-0.144-0.658-0.294-0.985-0.446c-0.27-0.125-0.541-0.249-0.809-0.38    c-0.378-0.185-0.752-0.38-1.124-0.576c-0.216-0.114-0.433-0.223-0.647-0.341c-0.435-0.239-0.863-0.489-1.289-0.742    c-0.15-0.089-0.303-0.173-0.452-0.264c-0.574-0.35-1.141-0.713-1.697-1.089c-0.001-0.001-0.002-0.001-0.003-0.002    c-0.566-0.383-1.123-0.78-1.67-1.188c-0.109-0.082-0.215-0.169-0.323-0.252c-10.415-7.933-17.154-20.457-17.154-34.53V202.84    c0-4.142-3.358-7.5-7.5-7.5c-4.142,0-7.5,3.358-7.5,7.5v52.957c0,1.378,0.065,2.74,0.16,4.095l-25.438-25.438    c4.341-5.813,6.687-12.838,6.687-20.224c0-9.052-3.525-17.562-9.926-23.963c-13.213-13.214-34.713-13.214-47.926,0    c-6.269,6.269-9.722,14.566-9.923,23.132c-8.565,0.202-16.864,3.654-23.132,9.923c-6.401,6.4-9.926,14.911-9.926,23.963    c0,9.052,3.525,17.562,9.926,23.963c6.401,6.401,14.911,9.926,23.963,9.926c7.386,0,14.411-2.347,20.224-6.688l47.593,47.593    c-16.503,16.578-31.972,36.022-46.258,58.188c-2.244,3.482-1.241,8.123,2.241,10.367c3.482,2.244,8.124,1.241,10.367-2.241    c15.34-23.8,32.049-44.262,49.919-61.218c1.02-0.969,2.045-1.928,3.075-2.874c0.351-0.323,0.703-0.639,1.055-0.959    c3.363-3.059,6.773-6,10.221-8.817c0.372-0.304,0.743-0.61,1.116-0.911c1.037-0.837,2.077-1.662,3.12-2.476    c0.461-0.36,0.924-0.714,1.387-1.069c2.522-1.939,5.059-3.813,7.609-5.612c1.421,0.944,2.881,1.819,4.374,2.633    c0.117,0.064,0.236,0.123,0.353,0.185c0.647,0.347,1.3,0.683,1.96,1.005c0.26,0.127,0.522,0.248,0.784,0.372    c0.298,0.14,0.592,0.288,0.893,0.423v46.714c-0.009,1.25,0.011,8.736,1.56,16.909c-9.686-1.195-18.311,0.161-25.205,2.256    c-15.728,4.779-25.787,14.295-26.208,14.698c-2.991,2.865-3.093,7.613-0.229,10.605c2.865,2.992,7.612,3.092,10.604,0.228    c0.077-0.074,8.052-7.49,20.193-11.179c10.087-3.065,20.044-2.731,29.767,0.961c0.309,0.117,0.617,0.249,0.926,0.374    c0.013,0.005,0.027,0.011,0.04,0.016c0.558,0.225,1.115,0.457,1.672,0.704c0.175,0.078,0.349,0.16,0.523,0.24    c0.207,0.095,0.413,0.188,0.62,0.285c0.512,0.242,1.023,0.497,1.534,0.757c0.025,0.013,0.051,0.026,0.076,0.039    c0.346,0.177,0.691,0.349,1.036,0.535c0.76,0.409,1.518,0.838,2.274,1.29c0.043,0.026,0.086,0.048,0.129,0.074    c0.303,0.182,0.604,0.38,0.906,0.569c0.567,0.354,1.133,0.712,1.698,1.089c0.237,0.158,0.472,0.323,0.708,0.485    c0.112,0.077,0.225,0.153,0.337,0.231c0.558,0.387,1.115,0.786,1.67,1.197c0.148,0.109,0.295,0.218,0.443,0.329    c0.153,0.115,0.308,0.225,0.461,0.342c0.83,0.633,1.658,1.284,2.483,1.968c0.019,0.015,0.038,0.029,0.056,0.045    c1.623,1.348,3.738,1.942,5.82,1.652c0.078-0.011,0.156-0.014,0.234-0.027c0.986-0.168,98.893-16.067,124.552,41.799    c1.241,2.798,3.984,4.462,6.86,4.462c1.016,0,2.048-0.208,3.036-0.646c3.787-1.679,5.495-6.11,3.816-9.896    c-2.238-5.048-4.98-9.75-8.187-14.113l12.325-6.884c19.673-10.988,32.384-35.067,32.384-61.344v-46.766    c0.343-0.154,0.68-0.321,1.02-0.482c0.187-0.089,0.375-0.174,0.561-0.265c2.195-1.065,4.325-2.261,6.373-3.598    c47.285,34.066,78.962,85.927,97.374,123.973c14.381,29.714,23.077,55.745,27.081,69.007H17.634    c5.014-15.465,16.697-48.013,36.304-83.617c1.998-3.628,0.676-8.189-2.952-10.188c-3.63-1.998-8.19-0.676-10.188,2.952    c-28.035,50.909-40.04,94.556-40.537,96.389c-0.612,2.254-0.138,4.665,1.281,6.52c1.419,1.855,3.621,2.943,5.957,2.943h498.862    c2.31,0,4.489-1.064,5.911-2.884C513.694,508.007,514.198,505.634,513.638,503.393z M434.565,285.006    c1.495-1.495,2.289-3.552,2.188-5.665s-1.091-4.083-2.723-5.428c-0.565-0.465-1.003-0.856-1.377-1.231    c-3.568-3.568-5.533-8.311-5.533-13.357c0-5.045,1.965-9.789,5.533-13.356c3.567-3.567,8.311-5.532,13.355-5.532    c5.046,0,9.789,1.965,13.358,5.533c4.978,4.978,6.767,12.256,4.67,18.993c-0.828,2.661-0.113,5.562,1.857,7.533    c1.971,1.97,4.872,2.685,7.533,1.858c6.737-2.099,14.016-0.308,18.993,4.67c7.365,7.365,7.365,19.349,0,26.713    c-7.363,7.364-19.349,7.364-26.712,0c-0.374-0.374-0.765-0.811-1.232-1.377c-1.344-1.633-3.315-2.621-5.428-2.724    c-2.122-0.102-4.17,0.693-5.665,2.188l-28.8,28.8c-5.994-6.773-12.188-13.169-18.517-19.121L434.565,285.006z M60.76,258.729    c-1.41-1.41-3.319-2.197-5.303-2.197c-0.12,0-0.24,0.003-0.36,0.009c-2.112,0.102-4.083,1.089-5.427,2.721    c-0.47,0.57-0.861,1.008-1.231,1.377c0,0.001-0.001,0.002-0.001,0.002c-3.568,3.568-8.312,5.533-13.357,5.533    c-5.045,0-9.789-1.965-13.357-5.533c-7.365-7.365-7.365-19.348,0-26.713c4.98-4.979,12.257-6.768,18.995-4.67    c2.662,0.828,5.563,0.112,7.533-1.858c1.971-1.971,2.687-4.872,1.857-7.533c-2.098-6.737-0.308-14.015,4.671-18.994    c7.364-7.364,19.347-7.365,26.713,0c3.568,3.568,5.532,8.311,5.532,13.356c0,5.046-1.964,9.789-5.532,13.357    c-0.374,0.373-0.81,0.764-1.375,1.229c-1.633,1.344-2.623,3.315-2.726,5.428c-0.103,2.113,0.692,4.17,2.188,5.666l54.894,54.894    c-0.358,0.263-0.712,0.542-1.07,0.807c-1.285,0.953-2.568,1.914-3.843,2.898c-0.417,0.322-0.831,0.653-1.247,0.978    c-1.424,1.113-2.846,2.236-4.257,3.388c-0.11,0.089-0.218,0.183-0.327,0.272c-3.361,2.754-6.692,5.599-9.979,8.573L60.76,258.729z     M324.332,404.089l-15.296,8.543c-2.736-2.471-5.712-4.765-8.871-6.915c-0.316-0.216-0.628-0.436-0.949-0.649    c-0.546-0.361-1.1-0.716-1.658-1.068c-0.769-0.488-1.551-0.965-2.342-1.434c-0.279-0.164-0.55-0.335-0.831-0.497    c-1.243-0.72-2.519-1.412-3.815-2.087c-0.072-0.037-0.145-0.074-0.217-0.111c-12.405-6.419-27.227-10.787-44.247-12.969    c-0.164-0.021-0.328-0.043-0.493-0.064c-0.351-0.044-0.695-0.094-1.047-0.137c-3.54-0.423-7.023-0.734-10.421-0.958    c-0.008-0.001-0.016-0.001-0.024-0.002c-0.016-0.001-0.031-0.002-0.047-0.003c-20.004-1.311-36.959,0.489-43.957,1.432    c-0.424-0.327-0.846-0.633-1.268-0.947c-0.261-0.194-0.521-0.395-0.782-0.584c-0.536-0.389-1.07-0.759-1.604-1.128    c-0.156-0.108-0.311-0.221-0.468-0.327c-0.557-0.379-1.112-0.741-1.667-1.099c-0.139-0.089-0.277-0.184-0.415-0.272    c-0.551-0.351-1.1-0.685-1.649-1.016c-0.151-0.091-0.301-0.186-0.452-0.276c-0.524-0.311-1.046-0.606-1.568-0.899    c-0.184-0.103-0.368-0.211-0.552-0.313c-0.472-0.26-0.942-0.505-1.412-0.75c-0.243-0.127-0.485-0.258-0.728-0.382    c-0.398-0.202-0.794-0.39-1.19-0.582c-0.272-0.132-0.544-0.271-0.817-0.399c-0.046-0.022-0.093-0.041-0.139-0.062    c-0.292-0.136-0.582-0.26-0.873-0.391c-0.13-0.058-0.259-0.117-0.389-0.174c-0.242-0.107-0.484-0.222-0.726-0.325    c-0.205-0.523-0.403-1.077-0.592-1.66c-0.007-0.022-0.014-0.044-0.02-0.065c-0.177-0.548-0.345-1.123-0.507-1.72    c-0.016-0.059-0.032-0.119-0.048-0.179c-0.325-1.225-0.618-2.548-0.875-3.954c-0.027-0.145-0.051-0.291-0.077-0.436    c-0.1-0.565-0.193-1.143-0.281-1.734c-0.021-0.14-0.044-0.281-0.064-0.421c-0.101-0.704-0.193-1.426-0.277-2.162    c-0.012-0.101-0.023-0.202-0.034-0.302c-0.179-1.621-0.319-3.31-0.413-5.059c-0.018-0.311-0.033-0.622-0.046-0.939    c-0.049-1.149-0.063-1.994-0.066-2.433c0-0.112-0.002-0.238-0.001-0.341v-42.329c0.215,0.033,0.434,0.053,0.65,0.083    c0.636,0.091,1.273,0.174,1.912,0.244c0.321,0.035,0.644,0.063,0.966,0.093c0.607,0.056,1.214,0.102,1.823,0.139    c0.287,0.017,0.573,0.036,0.861,0.049c0.892,0.041,1.784,0.068,2.68,0.068c8.232,0,14.93,6.698,14.93,14.93    c0,24.677,20.076,44.753,44.753,44.753h41.765c24.678,0,44.754-20.076,44.754-44.753c0-8.232,6.697-14.93,14.93-14.93    c0.895,0,1.788-0.027,2.68-0.068c0.288-0.013,0.574-0.032,0.861-0.049c0.609-0.037,1.217-0.083,1.824-0.139    c0.323-0.029,0.646-0.058,0.967-0.093c0.637-0.069,1.272-0.153,1.906-0.243c0.217-0.031,0.438-0.051,0.655-0.084v42.329    C349.03,376.77,339.336,395.708,324.332,404.089z"/>
	</g>
</g>















</svg>
