<?xml version="1.0" encoding="iso-8859-1"?>
<!-- Generator: Adobe Illustrator 19.0.0, SVG Export Plug-In . SVG Version: 6.00 Build 0)  -->
<svg xmlns="http://www.w3.org/2000/svg" xmlns:xlink="http://www.w3.org/1999/xlink" version="1.1" id="Layer_1" x="0px" y="0px" viewBox="0 0 512 512" style="enable-background:new 0 0 512 512;" xml:space="preserve" width="512" height="512">
<g>
	<path style="fill:#C6C5CA;" d="M44.644,293.475c0,0,3.175,38.964,20.638,46.457c17.463,7.493,14.288-37.466,14.288-37.466   L44.644,293.475z"/>
	<path style="fill:#C6C5CA;" d="M126.552,412.059c-1.641-10.456-6.161-30.222-17.416-36.76   c-13.374-7.769-16.844,29.844-17.556,40.604C102.132,414.163,114.023,412.929,126.552,412.059z"/>
	<path style="fill:#C6C5CA;" d="M186.827,410.125c-1.319-8.832-5.632-29.426-17.742-35.908   c-13.021-6.969-16.653,25.692-17.493,36.57C163.353,410.379,175.265,410.191,186.827,410.125z"/>
	<path style="fill:#C6C5CA;" d="M310.554,402.435c-1.887-10.93-6.515-28.913-17.077-35.118   c-13.634-8.009-16.975,31.674-17.595,41.663C288.236,407.66,299.789,405.43,310.554,402.435z"/>
	<path style="fill:#C6C5CA;" d="M370.112,373.468c-5.042-8.728-14.995-22.998-27.006-24.822   c-16.367-2.486-4.973,38.029-3.486,43.101C350.918,386.473,361.068,380.287,370.112,373.468z"/>
	<path style="fill:#C6C5CA;" d="M248.751,410.367c-0.348-3.475-3.613-31.829-18.22-39.647   c-14.566-7.797-17.384,34.007-17.686,39.423C226.337,410.219,238.64,410.361,248.751,410.367z"/>
	<path style="fill:#C6C5CA;" d="M352.12,302.448c1.711,9.75,6.264,27.447,17.328,33.369c13.156,7.042,16.728-26.378,17.519-36.906   C376.104,300.466,364.486,301.613,352.12,302.448z"/>
	<path style="fill:#C6C5CA;" d="M294.912,304.418c1.489,9.306,5.92,28.652,17.586,34.896c12.691,6.793,16.463-24.067,17.424-35.706   C318.773,304.038,307.1,304.288,294.912,304.418z"/>
	<path style="fill:#C6C5CA;" d="M234.885,304.906c1.404,9.083,5.775,29.043,17.665,35.407c12.717,6.807,16.478-24.19,17.43-35.775   C258.208,304.545,246.483,304.695,234.885,304.906z"/>
	<path style="fill:#C6C5CA;" d="M173.116,306.154c0.969,7.465,4.981,30.695,17.987,37.656c13.842,7.409,17.075-29.975,17.621-38.357   C196.604,305.725,184.702,305.992,173.116,306.154z"/>
	<path style="fill:#C6C5CA;" d="M110.549,305.183c0.725,6.164,4.48,31.333,18.108,38.627c13.427,7.187,16.871-27.77,17.564-37.525   C133.774,306.207,121.838,305.886,110.549,305.183z"/>
	<path style="fill:#E0E0E2;" d="M497.087,209.552c-13.308,86.01-91.895,94.984-226.338,94.984S7.493,323.604,7.493,236.681   c0-86.923,132.273-194.143,266.717-194.143C510.72,42.538,517.725,76.175,497.087,209.552z"/>
	<path style="fill:#C6C5CA;" d="M274.21,42.538c-2.425,0-4.848,0.045-7.27,0.114c214.231,2.22,220.129,37.932,200.173,166.9   c-13.308,86.01-199.543,94.984-196.364,94.984c134.444,0,213.03-8.974,226.338-94.984C517.725,76.174,510.72,42.538,274.21,42.538z   "/>
	<path style="fill:#E0E0E2;" d="M425.642,290.511c-11.129,52.447-66.691,119.857-176.207,119.857   c-60.846,0-203.676-5.216-201.087,29.973c2.647,35.967,80.435,28.474,215.374,28.474s192.09-88.419,203.202-121.389   c6.643-19.71,19.132-87.293,23.813-113.26C479.677,263.174,457.766,280.387,425.642,290.511z"/>
	<g>
		<path style="fill:#C6C5CA;" d="M452.383,279.006c-5.27,27.124-11.418,56.511-15.432,68.42    c-11.113,32.97-68.263,121.389-203.202,121.389c-32.567,0-16.058,0,29.974,0c134.939,0,192.09-88.419,203.202-121.389    c6.643-19.71,19.132-87.293,23.813-113.26C483.082,254.244,470.224,268.669,452.383,279.006z"/>
	</g>
	<path style="fill:#3E3D42;" d="M116.083,224.239c0,14.974-17.59,28.117-34.04,28.117c-16.45,0-17.02-15.151-17.02-30.125   c0-14.974,13.335-30.125,29.785-30.125S116.083,209.266,116.083,224.239z"/>
	<path style="fill:#2D2D30;" d="M94.808,192.106c-6.153,0-11.87,2.121-16.617,5.559c5.889,6.277,7.917,16.881,7.917,26.575   c0,9.391-6.92,18.061-16.138,23.221c2.523,3.044,6.327,4.896,12.072,4.896c16.45,0,34.04-13.143,34.04-28.117   C116.083,209.266,111.258,192.106,94.808,192.106z"/>
	<path style="fill:#3E3D42;" d="M329.787,155.904c-13.803,44.799-1.419,91.721-81.217,99.242   c-55.09,5.192-100.586,0.512-104.882-45.067c-7.778-82.528,34.236-114.797,89.326-119.989   C288.103,84.898,348.282,95.878,329.787,155.904z"/>
	<path style="fill:#2D2D30;" d="M240.758,89.472c40.847,3.053,73.305,20.183,59.055,66.432   c-13.803,44.799-1.419,91.721-81.217,99.242c-5.342,0.503-10.593,0.913-15.726,1.202c13.837,1.01,29.346,0.339,45.7-1.202   c79.799-7.521,67.414-54.443,81.217-99.242C347.418,98.682,293.553,86.031,240.758,89.472z"/>
	<path style="fill:#3E3D42;" d="M432.979,179.274c-2.612,26.164-10.112,72.007-37.767,69.536   c-47.527-4.247-32.434-69.664-29.822-95.828c2.612-26.164,27.148-45.371,54.802-42.9   C447.846,112.552,435.59,153.11,432.979,179.274z"/>
	<path style="fill:#2D2D30;" d="M420.192,110.081c-7.537-0.674-14.838,0.274-21.531,2.523c16.355,9.656,6.637,43.705,4.344,66.669   c-2.061,20.643-7.168,53.53-22.813,65.279c4.128,2.242,9.086,3.726,15.02,4.257c27.655,2.471,35.155-43.372,37.767-69.536   S447.846,112.552,420.192,110.081z"/>
	<g>
		<path d="M94.808,184.613c-19.858,0-37.278,17.579-37.278,37.618c0,8.461,0.218,16.617,2.85,23.392    c3.616,9.307,11.107,14.227,21.663,14.227c19.206,0,41.533-15.555,41.533-35.61C123.576,199.797,112.553,184.613,94.808,184.613z     M82.043,244.863c-6.624,0-9.526-2.141-9.526-22.632c0-10.465,9.737-22.631,22.291-22.631c12.438,0,13.781,17.231,13.781,24.64    C108.589,234.262,94.944,244.863,82.043,244.863z"/>
		<path d="M216.985,264.301c9.624,0,20.334-0.567,32.288-1.694c68.611-6.466,75.18-42.377,81.534-77.106    c1.652-9.027,3.359-18.361,6.142-27.39c6.597-21.411,4.5-38.955-6.231-52.147c-21.438-26.352-70.858-25.93-98.408-23.334    c-50.73,4.781-83.024,30.561-93.391,74.551c-0.949,4.028,1.546,8.063,5.575,9.012c4.028,0.951,8.063-1.547,9.012-5.575    c8.878-37.669,35.864-58.889,80.21-63.068c41.814-3.94,72.931,2.573,85.377,17.872c7.376,9.067,8.565,21.945,3.533,38.275    c-3.042,9.875-4.831,19.652-6.561,29.107c-6.318,34.53-10.882,59.48-68.198,64.882c-65.551,6.178-93.572-4.922-96.719-38.31    c-0.71-7.54-1.001-14.82-0.862-21.637c0.084-4.138-3.202-7.56-7.34-7.644c-4.153-0.073-7.56,3.202-7.644,7.34    c-0.15,7.386,0.162,15.241,0.926,23.348c2.275,24.142,15.229,40.285,38.5,47.984C185.929,262.472,199.707,264.301,216.985,264.301    z"/>
		<path d="M394.545,256.273c0.885,0.079,1.807,0.124,2.76,0.124c8.609,0,19.726-3.673,28.514-19.054    c5.199-9.098,9.227-21.73,11.974-37.545c0.707-4.077-2.024-7.957-6.101-8.665c-4.085-0.714-7.957,2.023-8.665,6.101    c-6.577,37.877-18.392,44.889-27.148,44.111c-8.469-0.757-14.698-3.764-19.044-9.194c-12.252-15.308-8.09-46.7-5.336-67.472    c0.529-3.986,1.027-7.752,1.347-10.953c2.201-22.053,23.136-38.282,46.679-36.181c4.632,0.414,6.512,2.174,7.524,3.462    c5.798,7.379,2.9,26.561,0.573,41.973c-0.446,2.951-0.908,6.002-1.301,8.9c-0.557,4.101,2.315,7.877,6.416,8.434    c4.097,0.559,7.877-2.315,8.434-6.416c0.382-2.807,0.822-5.718,1.268-8.68c3.044-20.156,6.193-40.998-3.605-53.469    c-4.219-5.37-10.266-8.442-17.977-9.131c-31.678-2.835-59.911,19.428-62.925,49.619c-0.296,2.961-0.757,6.442-1.292,10.472    c-3.088,23.297-7.756,58.504,8.493,78.806C372.071,250.184,381.967,255.149,394.545,256.273z"/>
		<path d="M493.999,77.424c-26.82-31.29-84.335-42.38-219.789-42.38c-64.139,0-132.769,24.052-188.291,65.989    C32.119,141.67,0,192.379,0,236.681c0,19.576,6.154,35.519,18.29,47.387c5.392,5.273,11.846,9.635,19.217,13.251    c1.267,10.676,6.476,41.628,24.821,49.5c2.252,0.966,4.491,1.446,6.648,1.446c2.885,0,5.619-0.86,8.019-2.567    c8.834-6.28,10.377-23.595,10.355-35.123c5.369,0.678,10.924,1.228,16.652,1.667c4.549,26.542,16.102,35.489,21.12,38.175    c2.308,1.235,4.683,1.854,7.009,1.854c2.199,0,4.354-0.553,6.362-1.662c7.522-4.151,12.418-16.521,14.585-36.805    c4.495-0.001,9.052-0.029,13.662-0.077c4.807,25.47,15.972,34.092,20.828,36.69c2.309,1.236,4.684,1.854,7.009,1.854    c2.212,0,4.379-0.561,6.397-1.682c7.671-4.262,12.595-16.964,14.668-37.795c4.319-0.096,8.668-0.188,13.036-0.275    c2.602,12.02,8.249,27.93,20.336,34.4c2.307,1.235,4.683,1.853,7.009,1.853c2.175,0,4.306-0.54,6.295-1.624    c2.816-1.534,10.987-5.999,14.442-35.127c4.054-0.009,8.038-0.029,11.965-0.058c2.629,11.854,8.281,27.557,20.237,33.957    c2.307,1.235,4.682,1.853,7.008,1.853c2.174,0,4.304-0.54,6.292-1.622c2.822-1.536,11.026-6.011,14.471-35.335    c3.175-0.145,6.292-0.308,9.366-0.485c2.966,12.424,8.708,26.148,19.814,32.093c2.308,1.235,4.684,1.853,7.009,1.853    c2.19,0,4.336-0.548,6.337-1.647c7.554-4.148,12.47-16.647,14.641-37.178c7.378-1.186,14.376-2.574,21.017-4.194    c-7.627,22.529-22.772,44.214-42.934,61.158c-6.798-9.809-16.226-19.429-27.752-21.179c-5.074-0.769-9.601,0.779-12.737,4.368    c-4.561,5.219-5.702,14.13-3.591,28.045c0.774,5.102,1.868,10.03,2.81,13.819c-4.704,1.985-9.539,3.781-14.496,5.389    c-3.062-12.51-8.674-25.967-18.945-32.001c-4.391-2.58-9.09-2.787-13.23-0.586c-7.974,4.241-13.062,18.304-15.154,41.823    c-4.488,0.362-9.037,0.598-13.645,0.706c-0.63-3.593-1.611-8.138-3.11-12.884c-4.07-12.882-10.148-21.563-18.066-25.801    c-4.529-2.424-9.31-2.473-13.464-0.141c-6.033,3.389-10.083,11.385-12.743,25.163c-0.939,4.866-1.545,9.68-1.929,13.503    c-4.311-0.009-8.592-0.009-12.834,0.004c-2.557-12.205-8.194-28.459-20.475-35.032c-4.477-2.396-9.212-2.472-13.334-0.213    c-7.426,4.068-12.308,16.225-14.543,36.174c-4.087,0.167-8.102,0.36-12.029,0.584c-2.885-13.63-8.577-28.807-19.814-35.336    c-4.397-2.553-9.094-2.748-13.227-0.547c-3.028,1.612-11.921,6.371-15.103,41.242c-17.74,3.431-31.018,8.489-37.954,15.895    c-4.175,4.458-6.161,9.811-5.743,15.482c1.765,23.993,28.48,30.322,48.419,32.995c18.285,2.451,42.031,3.07,70.77,3.07    c13.59-0.001,28.302-0.139,44.07-0.287c18.822-0.178,38.284-0.36,59.588-0.36c50.435,0,95.061-11.992,132.639-35.644    c36.595-23.033,57.132-51.659,66.116-66.673c2.125-3.551,0.969-8.152-2.582-10.278c-3.553-2.125-8.152-0.968-10.278,2.582    c-8.297,13.864-27.285,40.313-61.24,61.684c-35.149,22.123-77.091,33.341-124.656,33.341c-21.375,0-40.873,0.183-59.729,0.361    c-88.197,0.831-146.459,1.379-148.171-21.891c-0.077-1.048,0.069-2.358,1.736-4.139c8.7-9.29,39.365-13.56,60.977-15.452    c2.662-0.229,5.394-0.444,8.207-0.641c8.09-0.567,16.413-0.983,24.819-1.28c0.01,0,0.021,0.002,0.031,0.002    c0.087,0,0.174-0.001,0.261-0.004c10.612-0.369,22.066-0.584,35.018-0.658c0.02,0,0.038-0.003,0.058-0.003    c8.972-0.049,17.762-0.027,26.184,0.022c2.11,0.012,4.186,0.026,6.234,0.04c0.511,0.004,1.026,0.007,1.533,0.011    c1.008,0.007,2.009,0.015,2.999,0.022c1.353,0.01,2.711,0.021,4.037,0.031c7.788,0.061,15.144,0.118,21.52,0.118    c9.185,0,18.169-0.479,26.93-1.414c0.105-0.007,0.209-0.005,0.314-0.017c12.416-1.327,24.49-3.607,35.884-6.776    c0.267-0.074,0.524-0.166,0.776-0.266c10.047-2.838,19.674-6.379,28.83-10.602c0.21-0.076,0.419-0.155,0.623-0.25    c4.841-2.26,9.555-4.735,14.138-7.388c0.735-0.424,1.472-0.846,2.199-1.28c0.32-0.191,0.634-0.389,0.952-0.582    c0.997-0.603,1.989-1.213,2.971-1.835c0.237-0.151,0.472-0.305,0.708-0.456c1.052-0.673,2.097-1.356,3.133-2.05    c0.201-0.135,0.4-0.271,0.601-0.407c1.065-0.721,2.122-1.452,3.17-2.196c0.172-0.122,0.343-0.244,0.514-0.367    c1.085-0.776,2.159-1.563,3.224-2.363c0.073-0.055,0.149-0.108,0.222-0.163c0.016-0.012,0.031-0.026,0.047-0.039    c1.509-1.138,3.004-2.291,4.473-3.477c26.374-21.31,45.447-50.123,52.847-79.625c0.096-0.033,0.188-0.068,0.284-0.101    c18.227-6.281,32.855-14.87,44.156-26.076c-5.428,28.32-12.356,62.288-16.607,74.899c-1.321,3.922,0.786,8.173,4.708,9.494    c3.918,1.323,8.173-0.784,9.495-4.707c6.682-19.824,18.861-85.373,23.944-113.533c2.921-7.816,5.091-16.327,6.524-25.588    C513.781,150.667,518.466,105.968,493.999,77.424z M315.609,332.467c-4.677-2.81-8.836-10.386-11.519-20.677    c6.142-0.1,11.934-0.231,17.459-0.397C319.898,323.568,317.347,330.335,315.609,332.467z M165.972,381.063    c5.532,3.297,9.439,12.292,11.759,21.646c-6.249,0.072-12.159,0.181-17.813,0.329    C161.511,390.824,164.102,383.355,165.972,381.063z M106.097,382.241c4.727,3.293,8.832,11.569,11.5,22.971    c-6.183,0.519-12.096,1.134-17.699,1.863C101.473,393.493,104.118,385.052,106.097,382.241z M342.449,356.137    c5.301,1.064,11.629,6.639,17.584,15.356c-0.047,0.032-0.095,0.064-0.141,0.096c-1.075,0.738-2.164,1.461-3.261,2.174    c-0.31,0.202-0.622,0.4-0.934,0.6c-0.824,0.528-1.655,1.047-2.49,1.562c-0.483,0.296-0.965,0.592-1.451,0.884    c-0.604,0.363-1.215,0.718-1.824,1.074c-0.687,0.4-1.372,0.802-2.066,1.192c-0.155,0.088-0.313,0.172-0.468,0.259    c-0.95,0.53-1.905,1.055-2.869,1.568C341.803,369.01,341.205,359.438,342.449,356.137z M290.444,374.275    c4.592,3.275,8.65,11.447,11.334,22.64c-5.747,1.381-11.631,2.532-17.648,3.435C285.682,386.088,288.4,377.222,290.444,374.275z     M227.425,377.577c3.534,2.215,9.669,9.809,12.67,25.265c-3.863-0.022-7.947-0.054-12.162-0.087    c-2.274-0.018-4.601-0.036-6.975-0.053C222.469,388.457,225.514,379.999,227.425,377.577z M72.327,308.34    c0.199,11.244-1.372,22.204-3.714,24.851c-0.103-0.034-0.228-0.081-0.376-0.145c-7.435-3.191-12.2-17.576-14.545-29.385    c5.298,1.645,10.919,3.038,16.835,4.215L72.327,308.34z M131.737,336.945c-5.737-3.457-9.94-13.352-12.249-23.783    c6.02,0.262,12.198,0.432,18.514,0.53C136.247,328.488,133.184,335.015,131.737,336.945z M72.733,292.969l-16.086-4.141    c-11.501-3.717-20.986-8.735-27.879-15.475c-9.273-9.068-13.781-21.063-13.781-36.671c0-39.63,29.893-85.868,79.965-123.688    C147.927,72.98,213.264,50.032,274.21,50.032c128.715,0,185.199,10.068,208.41,37.146c18.598,21.698,17.095,56.379,7.061,121.229    c-1.281,8.276-3.193,15.824-5.778,22.706c-0.057,0.128-0.117,0.253-0.168,0.385c-8.412,22.062-23.93,37.375-48.372,47.522    c-0.332,0.137-0.66,0.277-0.995,0.412c-0.554,0.225-1.117,0.444-1.68,0.664c-0.487,0.19-0.976,0.378-1.47,0.564    c-0.498,0.187-0.998,0.373-1.503,0.557c-0.617,0.224-1.242,0.444-1.869,0.663c-0.421,0.147-0.839,0.295-1.264,0.439    c-0.725,0.245-1.459,0.484-2.195,0.721c-0.335,0.108-0.662,0.219-0.999,0.325c-0.002,0.001-0.004,0.001-0.006,0.002    c-11.035,3.483-23.342,6.112-37.032,8.089c-0.149,0.012-0.298,0.017-0.447,0.039c-10.354,1.481-21.571,2.619-34.291,3.478    c-0.097,0.007-0.192,0.025-0.289,0.035c-6.934,0.462-14.157,0.827-21.667,1.114c-0.009,0-0.017-0.001-0.026-0.001    c-2.129,0.082-4.307,0.157-6.518,0.228c-0.867,0.027-1.735,0.055-2.61,0.081c-0.662,0.02-1.327,0.038-1.997,0.057    c-1.462,0.04-2.931,0.079-4.415,0.114c-0.167,0.004-0.329,0.008-0.496,0.012c-1.867,0.044-3.75,0.084-5.65,0.12    c-0.079,0.002-0.16,0.003-0.239,0.004c-1.792,0.034-3.6,0.064-5.421,0.092c-0.219,0.003-0.439,0.007-0.659,0.01    c-1.825,0.027-3.663,0.052-5.518,0.073c-0.081,0.001-0.161,0.002-0.243,0.003c-8.082,0.091-16.451,0.13-25.119,0.13    c-0.256,0-0.511,0.002-0.767,0.002c-0.001,0-0.001,0-0.001,0c-0.002,0-0.004,0-0.004,0c-1.941,0.001-3.918,0.007-5.917,0.016    c-0.653,0.003-1.307,0.005-1.96,0.009c-1.935,0.011-3.918,0.026-5.93,0.045c-0.748,0.007-1.495,0.013-2.242,0.021    c-1.842,0.019-3.729,0.041-5.655,0.066c-0.972,0.013-1.942,0.026-2.912,0.04c-1.286,0.018-2.602,0.039-3.931,0.06    c-1.856,0.029-3.707,0.061-5.556,0.094c-0.379,0.007-0.742,0.013-1.124,0.02c-0.004,0-0.008,0.001-0.013,0.001    c-8.95,0.163-17.822,0.359-26.56,0.555c-1.131,0.025-2.261,0.051-3.39,0.076c-0.099,0.002-0.199,0.004-0.298,0.007    c-0.743,0.017-1.484,0.033-2.226,0.049c-0.607,0.014-1.214,0.027-1.819,0.04c-0.91,0.02-1.819,0.04-2.727,0.06    c-0.237,0.005-0.473,0.01-0.709,0.015C150.287,299.223,105.867,299.67,72.733,292.969z M194.214,336.963    c-5.923-3.531-9.959-13.568-12.191-23.457c0.541-0.01,1.091-0.021,1.633-0.031c2.036-0.038,4.08-0.076,6.134-0.118    c0.993-0.02,1.994-0.04,2.993-0.061c1.837-0.038,3.684-0.078,5.534-0.118c0.735-0.016,1.454-0.031,2.193-0.047    C198.971,326.306,196.187,334.537,194.214,336.963z M255.598,333.429c-5.402-3.274-9.258-12.043-11.582-21.178    c0.474-0.007,0.947-0.015,1.422-0.022c0.919-0.013,1.838-0.026,2.737-0.038c1.894-0.025,3.791-0.047,5.69-0.067    c0.791-0.008,1.571-0.016,2.348-0.023c1.812-0.017,3.626-0.03,5.441-0.041C259.754,326.493,256.773,331.823,255.598,333.429z     M372.562,328.971c-4.561-2.73-8.57-9.826-11.261-19.692c5.944-0.485,11.693-1.046,17.239-1.699    C376.946,319.447,374.409,326.713,372.562,328.971z"/>
	</g>
</g>















</svg>
